<svg xmlns="http://www.w3.org/2000/svg" xmlns:xlink="http://www.w3.org/1999/xlink" width="180" zoomAndPan="magnify" viewBox="0 0 135 38.999999" height="52" preserveAspectRatio="xMidYMid meet" version="1.0"><defs><g/></defs><g fill="#ffffff" fill-opacity="1"><g transform="translate(6.91349, 35.07199)"><g><path d="M -1.125 -30.734375 L 7.296875 -30.734375 L 13.703125 -20.890625 L 20.109375 -30.734375 L 28.53125 -30.734375 L 17.203125 -13.78125 L 17.203125 0 L 10.203125 0 L 10.203125 -13.78125 Z M -1.125 -30.734375 "/></g></g></g><g fill="#ffffff" fill-opacity="1"><g transform="translate(31.421101, 35.07199)"><g><path d="M 4.03125 -2.265625 C 1.914062 -4.160156 0.859375 -6.582031 0.859375 -9.53125 C 0.859375 -12.488281 1.960938 -14.914062 4.171875 -16.8125 C 6.378906 -18.71875 9.109375 -19.671875 12.359375 -19.671875 C 15.566406 -19.671875 18.269531 -18.710938 20.46875 -16.796875 C 22.664062 -14.890625 23.765625 -12.46875 23.765625 -9.53125 C 23.765625 -6.601562 22.691406 -4.1875 20.546875 -2.28125 C 18.398438 -0.382812 15.671875 0.5625 12.359375 0.5625 C 8.929688 0.5625 6.15625 -0.378906 4.03125 -2.265625 Z M 9.140625 -12.78125 C 8.285156 -11.9375 7.859375 -10.851562 7.859375 -9.53125 C 7.859375 -8.21875 8.265625 -7.144531 9.078125 -6.3125 C 9.898438 -5.476562 10.984375 -5.0625 12.328125 -5.0625 C 13.617188 -5.0625 14.679688 -5.484375 15.515625 -6.328125 C 16.347656 -7.171875 16.765625 -8.238281 16.765625 -9.53125 C 16.765625 -10.851562 16.332031 -11.9375 15.46875 -12.78125 C 14.613281 -13.625 13.566406 -14.046875 12.328125 -14.046875 C 11.066406 -14.046875 10.003906 -13.625 9.140625 -12.78125 Z M 9.140625 -12.78125 "/></g></g></g><g fill="#ffffff" fill-opacity="1"><g transform="translate(53.135251, 35.07199)"><g><path d="M 8.453125 -19.109375 L 8.453125 -10.015625 C 8.453125 -8.128906 8.738281 -6.789062 9.3125 -6 C 9.882812 -5.207031 10.851562 -4.8125 12.21875 -4.8125 C 13.582031 -4.8125 14.550781 -5.207031 15.125 -6 C 15.695312 -6.789062 15.984375 -8.128906 15.984375 -10.015625 L 15.984375 -19.109375 L 22.578125 -19.109375 L 22.578125 -8.421875 C 22.578125 -5.242188 21.75 -2.953125 20.09375 -1.546875 C 18.445312 -0.140625 15.820312 0.5625 12.21875 0.5625 C 8.613281 0.5625 5.984375 -0.140625 4.328125 -1.546875 C 2.679688 -2.953125 1.859375 -5.242188 1.859375 -8.421875 L 1.859375 -19.109375 Z M 8.453125 -19.109375 "/></g></g></g><g fill="#ffffff" fill-opacity="1"><g transform="translate(74.663168, 35.07199)"><g><path d="M 2.234375 0 L 2.234375 -19.109375 L 8.828125 -19.109375 L 8.828125 -16.359375 L 8.90625 -16.359375 C 8.957031 -16.453125 9.035156 -16.570312 9.140625 -16.71875 C 9.253906 -16.875 9.5 -17.132812 9.875 -17.5 C 10.25 -17.875 10.644531 -18.207031 11.0625 -18.5 C 11.488281 -18.800781 12.035156 -19.070312 12.703125 -19.3125 C 13.367188 -19.550781 14.050781 -19.671875 14.75 -19.671875 C 15.46875 -19.671875 16.175781 -19.570312 16.875 -19.375 C 17.570312 -19.175781 18.082031 -18.976562 18.40625 -18.78125 L 18.921875 -18.46875 L 16.171875 -12.890625 C 15.347656 -13.585938 14.203125 -13.9375 12.734375 -13.9375 C 11.941406 -13.9375 11.257812 -13.757812 10.6875 -13.40625 C 10.113281 -13.0625 9.707031 -12.640625 9.46875 -12.140625 C 9.238281 -11.648438 9.070312 -11.226562 8.96875 -10.875 C 8.875 -10.53125 8.828125 -10.257812 8.828125 -10.0625 L 8.828125 0 Z M 2.234375 0 "/></g></g></g><g fill="#ffffff" fill-opacity="1"><g transform="translate(90.306201, 35.07199)"><g><path d="M 17.84375 -30.734375 L 30.25 0 L 22.71875 0 L 20.453125 -6.140625 L 8.75 -6.140625 L 6.484375 0 L -1.046875 0 L 11.359375 -30.734375 Z M 18.0625 -12.296875 L 14.640625 -21.234375 L 14.5625 -21.234375 L 11.140625 -12.296875 Z M 18.0625 -12.296875 "/></g></g></g><g fill="#ffffff" fill-opacity="1"><g transform="translate(116.601622, 35.07199)"><g><path d="M 9.234375 -30.734375 L 9.234375 0 L 2.234375 0 L 2.234375 -30.734375 Z M 9.234375 -30.734375 "/></g></g></g></svg>